<svg width="7" height="12" viewBox="0 0 7 12" fill="none" xmlns="http://www.w3.org/2000/svg">
<path d="M6.75346 1.55277C6.94872 1.35751 6.94872 1.04093 6.75346 0.845665C6.55819 0.650403 6.24161 0.650403 6.04635 0.845665L6.75346 1.55277ZM1.5999 5.99922L1.24635 5.64567L0.892795 5.99922L1.24635 6.35277L1.5999 5.99922ZM6.04635 11.1528C6.24161 11.348 6.55819 11.348 6.75346 11.1528C6.94872 10.9575 6.94872 10.6409 6.75346 10.4457L6.04635 11.1528ZM6.04635 0.845665L1.24635 5.64567L1.95346 6.35277L6.75346 1.55277L6.04635 0.845665ZM1.24635 6.35277L6.04635 11.1528L6.75346 10.4457L1.95346 5.64567L1.24635 6.35277Z" fill="#1D1D1B"/>
</svg>
